<svg aria-hidden="true" style="position: absolute; width: 0; height: 0; overflow: hidden;" version="1.1" xmlns="http://www.w3.org/2000/svg" xmlns:xlink="http://www.w3.org/1999/xlink">
<defs>
  <symbol id="icon-heart" viewBox="0 0 32 32">
    <path fill="none" stroke="currentColor" stroke-linejoin="round" stroke-linecap="round" stroke-miterlimit="4" stroke-width="3" d="M16.827 27.747c-0.453 0.16-1.2 0.16-1.653 0-3.867-1.32-12.507-6.827-12.507-16.16 0-4.12 3.32-7.453 7.413-7.453 2.427 0 4.573 1.173 5.92 2.987 1.347-1.813 3.507-2.987 5.92-2.987 4.093 0 7.413 3.333 7.413 7.453 0 9.333-8.64 14.84-12.507 16.16z"></path>
</symbol>

<symbol id="icon-profile" viewBox="0 0 32 32">
    <path fill="none" stroke="currentColor" stroke-linejoin="round" stroke-linecap="round" stroke-miterlimit="4" stroke-width="3" d="M16 16c3.682 0 6.667-2.985 6.667-6.667s-2.985-6.667-6.667-6.667c-3.682 0-6.667 2.985-6.667 6.667s2.985 6.667 6.667 6.667z"></path>
    <path fill="none" stroke="currentColor" stroke-linejoin="round" stroke-linecap="round" stroke-miterlimit="4" stroke-width="3" d="M27.453 29.333c0-5.16-5.133-9.333-11.453-9.333s-11.453 4.173-11.453 9.333"></path>
</symbol>

<symbol id="icon-search" viewBox="0 0 32 32">
    <path fill="none" stroke="currentColor" stroke-linejoin="round" stroke-linecap="round" stroke-miterlimit="4" stroke-width="3" d="M14.667 26.667c6.627 0 12-5.373 12-12s-5.373-12-12-12c-6.627 0-12 5.373-12 12s5.373 12 12 12z"></path>
    <path fill="none" stroke="currentColor" stroke-linejoin="round" stroke-linecap="round" stroke-miterlimit="4" stroke-width="3" d="M25.24 27.586c0.707 2.133 2.32 2.347 3.56 0.48 1.133-1.707 0.387-3.107-1.667-3.107-1.52-0.013-2.373 1.173-1.893 2.627z"></path>
</symbol>

<symbol id="icon-cart" viewBox="0 0 32 32">
    <path fill="none" stroke="currentColor" stroke-linejoin="round" stroke-linecap="round" stroke-miterlimit="10" stroke-width="3" d="M11.747 2.667l-4.827 4.84"></path>
    <path fill="none" stroke="currentColor" stroke-linejoin="round" stroke-linecap="round" stroke-miterlimit="10" stroke-width="3" d="M20.253 2.667l4.827 4.84"></path>
    <path fill="none" stroke="currentColor" stroke-linejoin="miter" stroke-linecap="butt" stroke-miterlimit="4" stroke-width="3" d="M2.667 10.467c0-2.467 1.32-2.667 2.96-2.667h20.747c1.64 0 2.96 0.2 2.96 2.667 0 2.867-1.32 2.667-2.96 2.667h-20.747c-1.64 0-2.96 0.2-2.96-2.667z"></path>
    <path fill="none" stroke="currentColor" stroke-linejoin="miter" stroke-linecap="round" stroke-miterlimit="4" stroke-width="3" d="M13.013 18.667v4.733"></path>
    <path fill="none" stroke="currentColor" stroke-linejoin="miter" stroke-linecap="round" stroke-miterlimit="4" stroke-width="3" d="M19.147 18.667v4.733"></path>
    <path fill="none" stroke="currentColor" stroke-linejoin="miter" stroke-linecap="round" stroke-miterlimit="4" stroke-width="3" d="M4.667 13.333l1.88 11.52c0.427 2.587 1.453 4.48 5.267 4.48h8.040c4.147 0 4.76-1.813 5.24-4.32l2.24-11.68"></path>
</symbol>

<symbol id="icon-burger" viewBox="0 0 41 32">
    <path fill="currentColor" d="M2.286 1.143h36.571c1.262 0 2.286 1.023 2.286 2.286s-1.023 2.286-2.286 2.286h-36.571c-1.262 0-2.286-1.023-2.286-2.286s1.023-2.286 2.286-2.286z"></path>
    <path fill="currentColor" d="M2.286 13.714h36.571c1.262 0 2.286 1.023 2.286 2.286s-1.023 2.286-2.286 2.286h-36.571c-1.262 0-2.286-1.023-2.286-2.286s1.023-2.286 2.286-2.286z"></path>
    <path fill="currentColor" d="M2.286 26.285h36.571c1.262 0 2.286 1.023 2.286 2.286s-1.023 2.286-2.286 2.286h-36.571c-1.262 0-2.286-1.023-2.286-2.286s1.023-2.286 2.286-2.286z"></path>
</symbol>


<symbol id="icon-logo" viewBox="0 0 138 32">
<path fill="#393939" style="fill: var(--color1, #393939)" d="M15.909 24.283c0.249-0.029 0.461 0.044 0.636 0.219s0.263 0.388 0.263 0.636c0 0.249-0.088 0.453-0.263 0.614-0.176 0.176-0.388 0.256-0.636 0.241-0.41-0.044-0.783-0.080-1.119-0.11-0.336-0.015-0.666-0.022-0.987-0.022-0.293 0-0.6 0.007-0.922 0.022-0.307 0.029-0.651 0.066-1.031 0.11-0.234 0.015-0.446-0.066-0.636-0.241-0.176-0.161-0.263-0.366-0.263-0.614s0.088-0.461 0.263-0.636c0.19-0.176 0.402-0.249 0.636-0.219 0.19 0.015 0.388 0.029 0.592 0.044s0.41 0.037 0.614 0.066c0.132 0 0.197-0.066 0.197-0.198v-5.705c0-0.132-0.066-0.198-0.197-0.198h-8.119c-0.132 0-0.197 0.066-0.197 0.198v5.705c0 0.132 0.066 0.198 0.197 0.198 0.205-0.029 0.41-0.051 0.614-0.066s0.402-0.029 0.592-0.044c0.249-0.029 0.461 0.044 0.636 0.219s0.263 0.388 0.263 0.636c0 0.249-0.088 0.453-0.263 0.614-0.176 0.176-0.388 0.256-0.636 0.241-0.41-0.044-0.783-0.080-1.119-0.11-0.336-0.015-0.666-0.022-0.987-0.022-0.293 0-0.6 0.007-0.922 0.022-0.307 0.029-0.651 0.066-1.031 0.11-0.234 0.015-0.446-0.066-0.636-0.241-0.176-0.161-0.263-0.366-0.263-0.614s0.088-0.461 0.263-0.636c0.19-0.176 0.402-0.249 0.636-0.219 0.249 0.044 0.505 0.066 0.768 0.066h0.044c0.102 0 0.154-0.058 0.154-0.176v-12.793c0-0.146-0.066-0.205-0.198-0.176-0.263 0-0.519 0.022-0.768 0.066-0.234 0.015-0.446-0.059-0.636-0.219-0.176-0.176-0.263-0.388-0.263-0.636s0.088-0.461 0.263-0.636c0.19-0.176 0.402-0.249 0.636-0.219 0.424 0.044 0.797 0.080 1.119 0.11 0.336 0.015 0.666 0.022 0.987 0.022 0.293 0 0.592-0.007 0.9-0.022 0.322-0.029 0.673-0.066 1.053-0.11 0.249-0.029 0.461 0.044 0.636 0.219s0.263 0.388 0.263 0.636c0 0.249-0.088 0.461-0.263 0.636-0.176 0.161-0.388 0.234-0.636 0.219-0.19-0.029-0.388-0.051-0.592-0.066s-0.41-0.029-0.614-0.044c-0.132 0-0.197 0.066-0.197 0.197v5.069c0 0.132 0.066 0.198 0.197 0.198h8.119c0.132 0 0.197-0.066 0.197-0.198v-5.069c0-0.132-0.066-0.197-0.197-0.197-0.205 0.015-0.41 0.029-0.614 0.044s-0.402 0.037-0.592 0.066c-0.234 0.015-0.446-0.059-0.636-0.219-0.176-0.176-0.263-0.388-0.263-0.636s0.088-0.461 0.263-0.636c0.19-0.176 0.402-0.249 0.636-0.219 0.424 0.044 0.797 0.080 1.119 0.11 0.336 0.015 0.666 0.022 0.987 0.022 0.293 0 0.592-0.007 0.9-0.022 0.322-0.029 0.673-0.066 1.053-0.11 0.249-0.029 0.461 0.044 0.636 0.219s0.263 0.388 0.263 0.636c0 0.249-0.088 0.461-0.263 0.636-0.176 0.161-0.388 0.234-0.636 0.219-0.234-0.044-0.49-0.066-0.768-0.066h-0.044c-0.102 0-0.154 0.059-0.154 0.176v12.793c0 0.117 0.059 0.176 0.176 0.176 0.263 0 0.527-0.022 0.79-0.066zM31.495 9.626c0.249-0.029 0.461 0.044 0.636 0.219s0.263 0.388 0.263 0.636c0 0.234-0.080 0.432-0.241 0.592-0.146 0.161-0.344 0.241-0.592 0.241-0.117 0-0.249-0.007-0.395-0.022s-0.293-0.029-0.439-0.044h-0.066c-0.088 0-0.154 0.044-0.198 0.132l-4.103 7.57c-0.044 0.058-0.066 0.139-0.066 0.241v4.937c0 0.117 0.051 0.176 0.154 0.176 0.19 0 0.38-0.007 0.57-0.022 0.205-0.029 0.402-0.051 0.592-0.066 0.249-0.029 0.461 0.044 0.636 0.219s0.263 0.388 0.263 0.636c0 0.249-0.088 0.453-0.263 0.614-0.176 0.176-0.388 0.256-0.636 0.241-0.424-0.044-0.819-0.080-1.185-0.11-0.351-0.015-0.695-0.022-1.031-0.022-0.57 0-1.251 0.044-2.041 0.132-0.249 0.015-0.468-0.066-0.658-0.241-0.176-0.161-0.263-0.366-0.263-0.614s0.088-0.461 0.263-0.636c0.19-0.176 0.41-0.249 0.658-0.219 0.161 0.015 0.336 0.029 0.527 0.044 0.205 0.015 0.402 0.029 0.592 0.044h0.044c0.102 0 0.154-0.058 0.154-0.176v-4.784c0-0.102-0.022-0.183-0.066-0.241l-4.125-7.724c-0.044-0.088-0.11-0.132-0.198-0.132-0.161 0-0.314 0.015-0.461 0.044-0.146 0.015-0.3 0.022-0.461 0.022-0.234 0-0.432-0.080-0.592-0.241s-0.241-0.358-0.241-0.592c0-0.249 0.088-0.461 0.263-0.636s0.388-0.249 0.636-0.219c0.424 0.044 0.79 0.080 1.097 0.11 0.307 0.015 0.592 0.022 0.856 0.022 0.293 0 0.6-0.007 0.922-0.022 0.322-0.029 0.709-0.066 1.163-0.11 0.249-0.029 0.461 0.044 0.636 0.219 0.19 0.176 0.285 0.388 0.285 0.636 0 0.234-0.080 0.432-0.241 0.592s-0.366 0.241-0.614 0.241c-0.176 0-0.358-0.007-0.549-0.022-0.176-0.029-0.358-0.051-0.549-0.066h-0.044c-0.058 0-0.102 0.022-0.132 0.066-0.015 0.044-0.007 0.095 0.022 0.154l3.072 5.947c0.029 0.073 0.073 0.11 0.132 0.11s0.102-0.037 0.132-0.11l3.072-5.947c0.015-0.029 0.022-0.066 0.022-0.11 0-0.073-0.044-0.11-0.132-0.11-0.205 0-0.41 0.015-0.614 0.044-0.19 0.029-0.38 0.044-0.57 0.044-0.234 0-0.439-0.080-0.614-0.241-0.161-0.161-0.241-0.358-0.241-0.592 0-0.249 0.088-0.461 0.263-0.636 0.19-0.176 0.41-0.249 0.658-0.219 0.424 0.044 0.783 0.080 1.075 0.11 0.307 0.015 0.6 0.022 0.878 0.022 0.293 0 0.6-0.007 0.922-0.022 0.322-0.029 0.709-0.066 1.163-0.11zM36.93 9.757h4.016c1.872 0 3.335 0.424 4.389 1.273 1.053 0.834 1.58 2.011 1.58 3.533 0 1.112-0.263 2.026-0.79 2.743-0.527 0.702-1.236 1.221-2.128 1.558s-1.894 0.505-3.006 0.505h-3.116c-0.132 0-0.197 0.066-0.197 0.198v4.63c0 0.132 0.066 0.198 0.197 0.198 0.205-0.029 0.402-0.051 0.592-0.066 0.205-0.015 0.402-0.029 0.592-0.044 0.249-0.029 0.461 0.044 0.636 0.219s0.263 0.388 0.263 0.636c0 0.234-0.088 0.439-0.263 0.614s-0.388 0.249-0.636 0.219c-0.439-0.029-0.819-0.058-1.141-0.088-0.322-0.015-0.629-0.022-0.922-0.022s-0.592 0.007-0.9 0.022c-0.307 0.029-0.666 0.058-1.075 0.088-0.249 0.029-0.468-0.044-0.658-0.219-0.176-0.176-0.263-0.38-0.263-0.614 0-0.249 0.088-0.461 0.263-0.636 0.19-0.176 0.41-0.249 0.658-0.219 0.219 0.044 0.468 0.066 0.746 0.066h0.044c0.102 0 0.154-0.058 0.154-0.176v-12.727c0-0.117-0.051-0.176-0.154-0.176-0.132 0-0.256 0.007-0.373 0.022s-0.234 0.037-0.351 0.066c-0.263 0.029-0.497-0.044-0.702-0.219-0.19-0.176-0.285-0.395-0.285-0.658 0-0.278 0.095-0.505 0.285-0.68 0.205-0.176 0.439-0.249 0.702-0.219 0.293 0.044 0.6 0.088 0.922 0.132 0.322 0.029 0.629 0.044 0.922 0.044zM37.676 17.503c0 0.132 0.066 0.198 0.197 0.198h3.313c1.287 0 2.289-0.241 3.006-0.724 0.731-0.497 1.097-1.302 1.097-2.414 0-0.805-0.19-1.434-0.571-1.887-0.366-0.468-0.863-0.797-1.492-0.987-0.614-0.19-1.295-0.285-2.041-0.285h-3.313c-0.132 0-0.197 0.066-0.197 0.197v5.903zM63.759 9.56c0.249-0.029 0.461 0.044 0.636 0.219s0.263 0.388 0.263 0.636c0 0.249-0.088 0.461-0.263 0.636-0.176 0.161-0.388 0.234-0.636 0.219l-0.746-0.066h-0.044c-0.102 0-0.154 0.059-0.154 0.176v13.451c0 0.293-0.102 0.541-0.307 0.746-0.19 0.19-0.432 0.285-0.724 0.285-0.453 0-0.812-0.19-1.075-0.57l-7.899-12.134c-0.044-0.073-0.088-0.11-0.132-0.11-0.073 0-0.11 0.059-0.11 0.176v10.971c0 0.132 0.066 0.198 0.197 0.198 0.205-0.029 0.41-0.051 0.614-0.066 0.219-0.015 0.417-0.029 0.592-0.044 0.249-0.029 0.461 0.044 0.636 0.219 0.19 0.176 0.285 0.388 0.285 0.636s-0.095 0.453-0.285 0.614c-0.176 0.176-0.388 0.256-0.636 0.241-0.41-0.044-0.775-0.080-1.097-0.11-0.322-0.015-0.629-0.022-0.922-0.022-0.278 0-0.578 0.007-0.9 0.022-0.322 0.029-0.695 0.066-1.119 0.11-0.234 0.015-0.446-0.066-0.636-0.241-0.176-0.161-0.263-0.366-0.263-0.614s0.088-0.461 0.263-0.636c0.19-0.176 0.402-0.249 0.636-0.219l0.746 0.066h0.044c0.102 0 0.154-0.058 0.154-0.176v-12.683c0-0.132-0.059-0.197-0.176-0.197-0.132 0-0.263 0.022-0.395 0.066-0.117 0.044-0.241 0.066-0.373 0.066-0.249 0-0.461-0.088-0.636-0.263-0.176-0.19-0.263-0.417-0.263-0.68 0-0.278 0.102-0.505 0.307-0.68 0.205-0.19 0.446-0.263 0.724-0.219 0.19 0.029 0.388 0.059 0.592 0.088s0.402 0.059 0.592 0.088c0.41 0.015 0.79 0.117 1.141 0.307 0.366 0.19 0.658 0.454 0.878 0.79l7.614 11.827c0.044 0.073 0.088 0.11 0.132 0.11 0.073 0 0.11-0.058 0.11-0.176v-11.257c0-0.132-0.066-0.197-0.197-0.197-0.205 0.015-0.417 0.029-0.636 0.044-0.205 0.015-0.395 0.037-0.571 0.066-0.249 0.015-0.468-0.059-0.658-0.219-0.176-0.176-0.263-0.388-0.263-0.636s0.088-0.461 0.263-0.636c0.19-0.176 0.41-0.249 0.658-0.219 0.424 0.044 0.79 0.080 1.097 0.11 0.322 0.015 0.629 0.022 0.922 0.022s0.592-0.007 0.9-0.022c0.322-0.029 0.695-0.066 1.119-0.11zM74.59 9.56c1.082 0 2.099 0.212 3.050 0.636s1.785 1.017 2.502 1.777c0.717 0.746 1.28 1.616 1.69 2.611s0.614 2.055 0.614 3.182c0 1.141-0.205 2.209-0.614 3.204s-0.973 1.872-1.69 2.633c-0.717 0.746-1.551 1.331-2.501 1.755s-1.968 0.636-3.050 0.636c-1.082 0-2.099-0.212-3.050-0.636s-1.785-1.009-2.501-1.755c-0.717-0.761-1.28-1.638-1.69-2.633s-0.614-2.063-0.614-3.204c0-1.126 0.205-2.187 0.614-3.182s0.973-1.865 1.69-2.611c0.717-0.761 1.551-1.353 2.501-1.777s1.968-0.636 3.050-0.636zM74.59 24.262c1.156 0 2.187-0.271 3.094-0.812 0.922-0.556 1.653-1.324 2.194-2.304s0.812-2.107 0.812-3.379c0-1.258-0.271-2.37-0.812-3.335-0.527-0.98-1.251-1.748-2.172-2.304s-1.96-0.834-3.116-0.834c-1.185 0-2.238 0.285-3.16 0.856-0.922 0.556-1.646 1.324-2.172 2.304s-0.79 2.085-0.79 3.313c0 1.243 0.271 2.355 0.812 3.335s1.273 1.755 2.194 2.326c0.922 0.556 1.96 0.834 3.116 0.834zM87.585 13.773c-0.044 0.57 0.073 1.039 0.351 1.404 0.293 0.366 0.688 0.673 1.185 0.922 0.512 0.234 1.068 0.446 1.668 0.636 0.614 0.19 1.229 0.395 1.844 0.614 0.629 0.219 1.2 0.497 1.712 0.834 0.527 0.336 0.944 0.768 1.251 1.295 0.322 0.527 0.483 1.185 0.483 1.975 0 0.922-0.249 1.726-0.746 2.414-0.483 0.673-1.134 1.2-1.953 1.58-0.819 0.366-1.712 0.549-2.677 0.549-1.287 0-2.362-0.234-3.226-0.702s-1.529-0.98-1.997-1.536c-0.176-0.205-0.307-0.417-0.395-0.636-0.088-0.234-0.132-0.453-0.132-0.658 0-0.366 0.117-0.68 0.351-0.944 0.249-0.263 0.6-0.395 1.053-0.395 0.366 0 0.666 0.139 0.9 0.417 0.249 0.278 0.373 0.585 0.373 0.922 0 0.234-0.051 0.446-0.154 0.636-0.044 0.117-0.029 0.212 0.044 0.285 0.395 0.336 0.841 0.585 1.338 0.746 0.512 0.146 1.031 0.219 1.558 0.219 0.673 0 1.31-0.117 1.909-0.351s1.090-0.57 1.47-1.009c0.38-0.439 0.57-0.951 0.57-1.536 0-0.527-0.154-0.958-0.461-1.295-0.307-0.351-0.717-0.644-1.229-0.878-0.497-0.234-1.046-0.446-1.646-0.636-0.6-0.205-1.207-0.417-1.821-0.636-0.6-0.234-1.156-0.519-1.668-0.856-0.497-0.336-0.9-0.753-1.207-1.251s-0.461-1.119-0.461-1.865c0-1.097 0.249-1.975 0.746-2.633 0.512-0.658 1.163-1.134 1.953-1.426 0.805-0.293 1.631-0.439 2.48-0.439 0.82 0 1.595 0.117 2.326 0.351 0.731 0.219 1.331 0.527 1.799 0.922s0.702 0.848 0.702 1.36c-0.015 0.366-0.154 0.688-0.417 0.966-0.249 0.263-0.563 0.395-0.944 0.395-0.366 0-0.68-0.132-0.944-0.395-0.263-0.278-0.395-0.6-0.395-0.966 0-0.059 0-0.117 0-0.176 0.015-0.059 0.029-0.117 0.044-0.176 0.029-0.132 0.037-0.197 0.022-0.197-0.176-0.117-0.468-0.219-0.878-0.307-0.41-0.102-0.863-0.154-1.361-0.154-0.512 0-1.024 0.080-1.536 0.241-0.497 0.146-0.922 0.41-1.273 0.79-0.351 0.366-0.556 0.892-0.614 1.58z"></path>
<path fill="#b99376" style="fill: var(--color2, #b99376)" d="M123.429 1.371c8.079 0 14.629 6.549 14.629 14.629s-6.549 14.629-14.629 14.629c-8.079 0-14.629-6.549-14.629-14.629s6.549-14.629 14.629-14.629z"></path>
<path fill="#fff" style="fill: var(--color3, #fff)" d="M115.2 21.259v-0.043c0-0.019 0.015-0.029 0.043-0.029 0.087 0 0.188-0.024 0.304-0.072 0.125-0.058 0.241-0.14 0.347-0.246 0.106-0.116 0.198-0.26 0.274-0.434 0.078-0.183 0.116-0.405 0.116-0.665l-0.015-8.023c-0.010 0-0.019-0.005-0.029-0.014-0.134-0.077-0.279-0.13-0.433-0.159-0.144-0.039-0.265-0.058-0.361-0.058-0.010 0-0.029 0-0.058 0-0.020 0-0.029-0.010-0.029-0.029v-0.029c0-0.019 0.005-0.029 0.015-0.029h1.951c0.058 0 0.091 0.010 0.102 0.029 0.009 0.010 0.038 0.067 0.087 0.174 0.482 1.156 0.983 2.322 1.503 3.498 0.53 1.176 1.055 2.342 1.575 3.498l2.631-6.91v-0.014c0-0.164 0.058-0.251 0.174-0.26 0.125-0.010 0.27-0.014 0.433-0.014h1.445c0.010 0 0.015 0.010 0.015 0.029v0.029c0 0.019-0.015 0.029-0.043 0.029-0.106 0-0.218 0.024-0.333 0.072s-0.221 0.111-0.318 0.188c-0.096 0.077-0.178 0.173-0.246 0.289-0.058 0.106-0.087 0.222-0.087 0.347v7.835c0 0.125 0.029 0.246 0.087 0.361 0.068 0.106 0.15 0.198 0.246 0.275s0.202 0.14 0.318 0.188c0.115 0.048 0.227 0.072 0.333 0.072 0.028 0 0.043 0.010 0.043 0.029v0.029c0 0.019-0.005 0.029-0.015 0.029h-3.050c-0.009 0-0.015-0.010-0.015-0.029l-0.014-0.029c0-0.019 0.019-0.029 0.058-0.029 0.106 0 0.217-0.024 0.332-0.072s0.218-0.111 0.304-0.188c0.097-0.077 0.174-0.169 0.231-0.275 0.068-0.116 0.102-0.236 0.102-0.361v-8.095c-0.491 1.291-0.978 2.578-1.46 3.86-0.472 1.282-0.954 2.573-1.445 3.874h-0.318c-0.578-1.301-1.157-2.592-1.734-3.874-0.569-1.291-1.142-2.588-1.721-3.889-0.028-0.077-0.053-0.13-0.072-0.159-0.009-0.039-0.024-0.072-0.043-0.101v6.216c0.009 0.289 0.015 0.578 0.015 0.867s0 0.578 0 0.867c0 0.145 0.024 0.299 0.072 0.463 0.058 0.154 0.134 0.299 0.231 0.434s0.207 0.251 0.332 0.347c0.135 0.087 0.28 0.13 0.434 0.13 0.019 0 0.028 0.010 0.028 0.029v0.029c0 0.019-0.005 0.029-0.014 0.029h-2.27c-0.038 0-0.058-0.005-0.058-0.014z"></path>
<path fill="#fff" style="fill: var(--color3, #fff)" d="M125.641 21.172c0.106 0 0.217-0.024 0.333-0.072s0.217-0.111 0.304-0.188c0.096-0.087 0.173-0.188 0.231-0.304 0.067-0.116 0.101-0.236 0.101-0.361 0.010-0.655 0.015-1.306 0.015-1.952s0-1.301 0-1.966c0-0.655 0-1.306 0-1.952s-0.005-1.296-0.015-1.951c0-0.135-0.034-0.255-0.101-0.361-0.058-0.116-0.135-0.212-0.231-0.289-0.087-0.077-0.188-0.14-0.304-0.188s-0.227-0.072-0.333-0.072c-0.029 0-0.043-0.010-0.043-0.029v-0.029c1.011-0.019 2.062-0.029 3.151-0.029s2.12 0 3.094 0l0.289 2.429c0.019 0.019 0.015 0.029-0.015 0.029h-0.028c-0.019 0-0.029-0.010-0.029-0.029-0.029-0.26-0.115-0.52-0.261-0.781-0.144-0.27-0.323-0.511-0.535-0.723s-0.453-0.385-0.722-0.52c-0.261-0.135-0.53-0.202-0.81-0.202h-1.243c-0.231 0-0.429 0.072-0.593 0.217-0.154 0.145-0.23 0.337-0.23 0.578 0 0.655-0.005 1.306-0.015 1.951 0 0.646 0 1.296 0 1.952v0.188h1.633c0.106 0 0.208-0.029 0.304-0.087 0.106-0.067 0.197-0.149 0.275-0.246 0.087-0.096 0.154-0.198 0.202-0.304 0.058-0.116 0.087-0.222 0.087-0.318 0-0.019 0.010-0.029 0.029-0.029h0.043c0.010 0 0.015 0.005 0.015 0.014v2.096c0 0.010-0.005 0.014-0.015 0.014h-0.043c-0.019 0-0.029-0.010-0.029-0.029 0-0.096-0.029-0.198-0.087-0.304-0.048-0.116-0.115-0.222-0.202-0.318-0.078-0.096-0.169-0.173-0.275-0.231-0.096-0.067-0.197-0.106-0.304-0.116h-1.633c0 0.607 0 1.209 0 1.807 0.009 0.588 0.015 1.181 0.015 1.778 0 0.241 0.086 0.448 0.26 0.622 0.183 0.164 0.39 0.246 0.622 0.246h1.027c0.462-0.029 0.833-0.145 1.113-0.347 0.289-0.212 0.511-0.443 0.665-0.694 0.164-0.26 0.27-0.511 0.318-0.752 0.058-0.241 0.087-0.405 0.087-0.492 0-0.019 0.010-0.029 0.029-0.029h0.028c0.019 0 0.029 0.010 0.029 0.029v2.429h-6.231c-0.009 0-0.014-0.010-0.014-0.029l-0.015-0.029c0-0.019 0.019-0.029 0.058-0.029z"></path>
</symbol>

<symbol id="icon-arrow" viewBox="0 0 32 32">
<path fill="currentColor" stroke="currentColor" d="M0 15.238l2.686 2.686 10.648-10.629v23.181h3.81v-23.181l10.648 10.629 2.686-2.686-15.238-15.238-15.238 15.238z"></path>
</symbol>

<symbol id="icon-facebook" viewBox="0 0 32 32">
<path fill="currentColor" stroke="currentColor"  d="M1.185 16.083c0 7.367 5.349 13.49 12.346 14.732v-10.7h-3.704v-4.115h3.704v-3.293c0-3.704 2.386-5.761 5.762-5.761 1.069 0 2.222 0.164 3.291 0.328v3.786h-1.893c-1.811 0-2.222 0.905-2.222 2.058v2.88h3.951l-0.658 4.115h-3.293v10.7c6.996-1.242 12.346-7.366 12.346-14.732 0-8.194-6.667-14.898-14.815-14.898s-14.815 6.704-14.815 14.898z"></path>
</symbol>

<symbol id="icon-instagram" viewBox="0 0 30 32">
<path fill="currentColor" stroke="currentColor" d="M14.861 21.371c2.966 0 5.37-2.404 5.37-5.37s-2.404-5.37-5.37-5.37c-2.966 0-5.37 2.404-5.37 5.37s2.404 5.37 5.37 5.37z"></path>
<path fill="currentColor" stroke="currentColor" d="M20.694 1.648h-11.759c-4.676 0-8.472 3.796-8.472 8.472v11.667c0 4.769 3.796 8.565 8.472 8.565h11.667c4.769 0 8.565-3.796 8.565-8.472v-11.759c0-4.676-3.796-8.472-8.472-8.472zM14.861 23.037c-3.935 0-7.037-3.195-7.037-7.037s3.148-7.037 7.037-7.037c3.843 0 6.991 3.194 6.991 7.037s-3.102 7.037-6.991 7.037zM24.583 9.611c-0.463 0.509-1.157 0.787-1.944 0.787-0.694 0-1.389-0.278-1.945-0.787-0.509-0.509-0.787-1.157-0.787-1.944s0.278-1.389 0.787-1.944c0.509-0.556 1.157-0.833 1.945-0.833 0.694 0 1.435 0.278 1.944 0.787 0.463 0.602 0.787 1.296 0.787 2.037-0.046 0.741-0.324 1.389-0.787 1.898z"></path>
<path fill="currentColor" stroke="currentColor" d="M22.685 6.556c-0.602 0-1.111 0.509-1.111 1.111s0.509 1.111 1.111 1.111c0.602 0 1.111-0.509 1.111-1.111s-0.463-1.111-1.111-1.111z"></path>
</symbol>


<symbol id="icon-x-altx-alt" viewBox="0 0 32 32">
<path d="M16 0c-8.836 0-16 7.164-16 16s7.164 16 16 16 16-7.164 16-16-7.164-16-16-16zM23.914 21.086l-2.828 2.828-5.086-5.086-5.086 5.086-2.828-2.828 5.086-5.086-5.086-5.086 2.828-2.828 5.086 5.086 5.086-5.086 2.828 2.828-5.086 5.086 5.086 5.086z"></path>
</symbol>

<symbol id="icon-crystal" viewBox="0 0 871 682">
<path fill="currentColor" stroke="currentColor" d="M1 193.8 130.43 1M1 193.8 429.72 681M1 193.8h255.38m613.62 0L733.64 1M870 193.8 429.72 681M870 193.8H603.06M733.64 1H429.72m303.92 0L603.06 193.8M130.43 1l125.95 192.8M130.43 1h299.3m0 680 173.33-487.2M429.72 681 256.38 193.8m0 0L429.72 1M256.38 193.8h346.68M429.72 1l173.34 192.8"></path>
</symbol>

</svg>


